<?xml version="1.0" encoding="utf-8"?>
<!-- Svg Vector Icons : http://www.sfont.cn -->
<!DOCTYPE svg PUBLIC "-//W3C//DTD SVG 1.1//EN" "http://www.w3.org/Graphics/SVG/1.1/DTD/svg11.dtd">
<svg version="1.1" xmlns="http://www.w3.org/2000/svg" xmlns:xlink="http://www.w3.org/1999/xlink" x="0px" y="0px" viewBox="0 0 1000 1000" enable-background="new 0 0 1000 1000" xml:space="preserve">
<metadata> Svg Vector Icons : http://www.sfont.cn </metadata>
<g><path d="M979.1,24.5c43.4,43.4-47,206.6-207.8,386.5l67.2,513.5l-85.6,62L585.9,595.6C513,660.1,443,712.9,383,749.6l36.7,175.8L379.9,949l-121-194.8l0.7-0.2L248.6,743L55.3,622.9l23.6-39.8l175.5,36.7c35.4-57.8,85.7-124.7,146.9-194.6L10,257.8l62-85.6l512.7,67.1C767.7,74.1,935.1-19.6,979.1,24.5L979.1,24.5z M685.5,389c-6.6-6.6-17.4-6.6-24,0L560.3,490.3c-6.6,6.6-6.6,17.4,0,24l0,0c6.6,6.6,17.4,6.6,24,0L685.5,413C692.1,406.5,692.1,395.7,685.5,389L685.5,389L685.5,389z M614.5,318.1c-6.6-6.6-17.4-6.6-24,0L489.3,419.3c-6.6,6.6-6.6,17.4,0,24l0,0c6.6,6.6,17.4,6.6,24,0l101.2-101.2C621.2,335.5,621.2,324.7,614.5,318.1L614.5,318.1z"/></g>
</svg>